<mxfile host="www.draw.io" modified="2019-12-02T12:24:47.290Z" agent="Mozilla/5.0 (Windows NT 10.0; Win64; x64) AppleWebKit/537.36 (KHTML, like Gecko) Chrome/78.0.3904.108 Safari/537.36" etag="aki07bI5mn46gvHyNyk8" version="12.3.3" type="github" pages="1">
  <diagram name="Page-1" id="74e2e168-ea6b-b213-b513-2b3c1d86103e">
    <mxGraphModel dx="1221" dy="-219" grid="1" gridSize="10" guides="1" tooltips="1" connect="1" arrows="1" fold="1" page="1" pageScale="1" pageWidth="1100" pageHeight="850" background="#ffffff" math="0" shadow="0">
      <root>
        <mxCell id="0"/>
        <mxCell id="1" parent="0"/>
        <mxCell id="L5OPisyhlvLee5xW57fV-12" value="SOP Customs duty reference gap" style="swimlane;html=1;childLayout=stackLayout;startSize=20;rounded=0;shadow=0;labelBackgroundColor=none;strokeWidth=1;fontFamily=Verdana;fontSize=8;align=center;" vertex="1" parent="1" treatAsSingle="0">
          <mxGeometry x="70" y="870" width="575" height="1180" as="geometry"/>
        </mxCell>
        <mxCell id="L5OPisyhlvLee5xW57fV-13" value="flow" style="swimlane;html=1;startSize=20;" vertex="1" parent="L5OPisyhlvLee5xW57fV-12" treatAsSingle="0">
          <mxGeometry y="20" width="190" height="1160" as="geometry"/>
        </mxCell>
        <mxCell id="L5OPisyhlvLee5xW57fV-31" value="" style="edgeStyle=orthogonalEdgeStyle;rounded=0;orthogonalLoop=1;jettySize=auto;html=1;entryX=0.5;entryY=0;entryDx=0;entryDy=0;" edge="1" parent="L5OPisyhlvLee5xW57fV-13" source="L5OPisyhlvLee5xW57fV-14" target="L5OPisyhlvLee5xW57fV-15">
          <mxGeometry relative="1" as="geometry"/>
        </mxCell>
        <mxCell id="L5OPisyhlvLee5xW57fV-14" value="Start" style="ellipse;whiteSpace=wrap;html=1;" vertex="1" parent="L5OPisyhlvLee5xW57fV-13">
          <mxGeometry x="35" y="40" width="120" height="80" as="geometry"/>
        </mxCell>
        <mxCell id="L5OPisyhlvLee5xW57fV-32" value="" style="edgeStyle=orthogonalEdgeStyle;rounded=0;orthogonalLoop=1;jettySize=auto;html=1;entryX=0.5;entryY=0;entryDx=0;entryDy=0;" edge="1" parent="L5OPisyhlvLee5xW57fV-13" source="L5OPisyhlvLee5xW57fV-15" target="L5OPisyhlvLee5xW57fV-17">
          <mxGeometry relative="1" as="geometry"/>
        </mxCell>
        <mxCell id="L5OPisyhlvLee5xW57fV-33" value="" style="edgeStyle=orthogonalEdgeStyle;rounded=0;orthogonalLoop=1;jettySize=auto;html=1;entryX=0.5;entryY=0;entryDx=0;entryDy=0;" edge="1" parent="L5OPisyhlvLee5xW57fV-13" source="L5OPisyhlvLee5xW57fV-17" target="L5OPisyhlvLee5xW57fV-19">
          <mxGeometry relative="1" as="geometry"/>
        </mxCell>
        <mxCell id="L5OPisyhlvLee5xW57fV-35" value="" style="edgeStyle=orthogonalEdgeStyle;rounded=0;orthogonalLoop=1;jettySize=auto;html=1;entryX=0.5;entryY=0;entryDx=0;entryDy=0;" edge="1" parent="L5OPisyhlvLee5xW57fV-13" source="L5OPisyhlvLee5xW57fV-19" target="L5OPisyhlvLee5xW57fV-21">
          <mxGeometry relative="1" as="geometry"/>
        </mxCell>
        <mxCell id="L5OPisyhlvLee5xW57fV-36" value="" style="edgeStyle=orthogonalEdgeStyle;rounded=0;orthogonalLoop=1;jettySize=auto;html=1;entryX=0.5;entryY=0;entryDx=0;entryDy=0;" edge="1" parent="L5OPisyhlvLee5xW57fV-13" source="L5OPisyhlvLee5xW57fV-21" target="L5OPisyhlvLee5xW57fV-27">
          <mxGeometry relative="1" as="geometry">
            <mxPoint x="95" y="770" as="targetPoint"/>
          </mxGeometry>
        </mxCell>
        <mxCell id="L5OPisyhlvLee5xW57fV-37" value="" style="edgeStyle=orthogonalEdgeStyle;rounded=0;orthogonalLoop=1;jettySize=auto;html=1;entryX=0.5;entryY=0;entryDx=0;entryDy=0;" edge="1" parent="L5OPisyhlvLee5xW57fV-13" source="L5OPisyhlvLee5xW57fV-27" target="L5OPisyhlvLee5xW57fV-29">
          <mxGeometry relative="1" as="geometry">
            <mxPoint x="95" y="920" as="targetPoint"/>
          </mxGeometry>
        </mxCell>
        <mxCell id="L5OPisyhlvLee5xW57fV-53" value="" style="group" vertex="1" connectable="0" parent="L5OPisyhlvLee5xW57fV-13">
          <mxGeometry x="20" y="630" width="150" height="100" as="geometry"/>
        </mxCell>
        <mxCell id="L5OPisyhlvLee5xW57fV-21" value="" style="rounded=1;whiteSpace=wrap;html=1;" vertex="1" parent="L5OPisyhlvLee5xW57fV-53">
          <mxGeometry width="150" height="100" as="geometry"/>
        </mxCell>
        <mxCell id="L5OPisyhlvLee5xW57fV-25" value="Finance Controller&#xa;------------------------&#xa;Take Konvana file and&#xa;data" style="text;html=1;" vertex="1" parent="L5OPisyhlvLee5xW57fV-53">
          <mxGeometry x="10" y="15" width="140" height="70" as="geometry"/>
        </mxCell>
        <mxCell id="L5OPisyhlvLee5xW57fV-54" value="" style="group" vertex="1" connectable="0" parent="L5OPisyhlvLee5xW57fV-13">
          <mxGeometry x="20" y="500" width="160" height="90" as="geometry"/>
        </mxCell>
        <mxCell id="L5OPisyhlvLee5xW57fV-19" value="" style="rounded=1;whiteSpace=wrap;html=1;" vertex="1" parent="L5OPisyhlvLee5xW57fV-54">
          <mxGeometry width="150" height="90" as="geometry"/>
        </mxCell>
        <mxCell id="L5OPisyhlvLee5xW57fV-20" value="Customs Zone Manager&#xa;---------------------------&#xa;Take the extraction from&#xa;CAT for those model&#xa;with 0 duty" style="text;html=1;" vertex="1" parent="L5OPisyhlvLee5xW57fV-54">
          <mxGeometry x="10" y="6" width="150" height="80" as="geometry"/>
        </mxCell>
        <mxCell id="L5OPisyhlvLee5xW57fV-55" value="" style="group" vertex="1" connectable="0" parent="L5OPisyhlvLee5xW57fV-13">
          <mxGeometry x="20" y="335" width="150" height="115" as="geometry"/>
        </mxCell>
        <mxCell id="L5OPisyhlvLee5xW57fV-17" value="" style="rounded=1;whiteSpace=wrap;html=1;" vertex="1" parent="L5OPisyhlvLee5xW57fV-55">
          <mxGeometry width="150" height="115" as="geometry"/>
        </mxCell>
        <mxCell id="L5OPisyhlvLee5xW57fV-18" value="Commercial Director&#xa;------------------------&#xa;Take Zar 49 extraction&#xa;from ECC (SAP)" style="text;html=1;" vertex="1" parent="L5OPisyhlvLee5xW57fV-55">
          <mxGeometry x="10" y="22.5" width="140" height="70" as="geometry"/>
        </mxCell>
        <mxCell id="L5OPisyhlvLee5xW57fV-56" value="" style="group" vertex="1" connectable="0" parent="L5OPisyhlvLee5xW57fV-13">
          <mxGeometry x="20" y="150" width="170" height="140" as="geometry"/>
        </mxCell>
        <mxCell id="L5OPisyhlvLee5xW57fV-15" value="" style="rounded=1;whiteSpace=wrap;html=1;" vertex="1" parent="L5OPisyhlvLee5xW57fV-56">
          <mxGeometry width="150" height="140" as="geometry"/>
        </mxCell>
        <mxCell id="L5OPisyhlvLee5xW57fV-16" value="Custome Zone Manager&#xa;-------------------------&#xa;Make sure to update the&#xa;customs duty and&#xa;preferential duty for all&#xa;the HS Code and&#xa;countries" style="text;html=1;" vertex="1" parent="L5OPisyhlvLee5xW57fV-56">
          <mxGeometry x="10" y="15" width="160" height="110" as="geometry"/>
        </mxCell>
        <mxCell id="L5OPisyhlvLee5xW57fV-57" value="" style="group" vertex="1" connectable="0" parent="L5OPisyhlvLee5xW57fV-13">
          <mxGeometry x="20" y="767" width="155" height="100" as="geometry"/>
        </mxCell>
        <mxCell id="L5OPisyhlvLee5xW57fV-27" value="" style="rounded=1;whiteSpace=wrap;html=1;" vertex="1" parent="L5OPisyhlvLee5xW57fV-57">
          <mxGeometry width="150" height="100" as="geometry"/>
        </mxCell>
        <mxCell id="L5OPisyhlvLee5xW57fV-28" value="Customs Zone Manager&#xa;-----------------------------&#xa;Collecting PIB, BPN,&#xa;Billing from Customs&#xa;Brokerer" style="text;html=1;" vertex="1" parent="L5OPisyhlvLee5xW57fV-57">
          <mxGeometry x="5" y="11" width="150" height="80" as="geometry"/>
        </mxCell>
        <mxCell id="L5OPisyhlvLee5xW57fV-58" value="" style="group" vertex="1" connectable="0" parent="L5OPisyhlvLee5xW57fV-13">
          <mxGeometry x="20" y="910" width="155" height="180" as="geometry"/>
        </mxCell>
        <mxCell id="L5OPisyhlvLee5xW57fV-29" value="" style="rounded=1;whiteSpace=wrap;html=1;" vertex="1" parent="L5OPisyhlvLee5xW57fV-58">
          <mxGeometry width="150" height="180" as="geometry"/>
        </mxCell>
        <mxCell id="L5OPisyhlvLee5xW57fV-30" value="Finance Controller&#xa;------------------------&#xa;1. Based PIB, Billing,     &#xa;   BPN, provide customs&#xa;duty realized amout on&#xa;gap report&#xa;2.  Accrue for all&#xa;shioment that hasn&#39;t&#xa;been realized, duty gap&#xa;report" style="text;html=1;" vertex="1" parent="L5OPisyhlvLee5xW57fV-58">
          <mxGeometry x="5" y="15" width="150" height="150" as="geometry"/>
        </mxCell>
        <mxCell id="L5OPisyhlvLee5xW57fV-22" value="Database" style="swimlane;html=1;startSize=20;" vertex="1" parent="L5OPisyhlvLee5xW57fV-12" treatAsSingle="0">
          <mxGeometry x="190" y="20" width="160" height="1160" as="geometry"/>
        </mxCell>
        <mxCell id="L5OPisyhlvLee5xW57fV-38" value="CAT" style="shape=parallelogram;perimeter=parallelogramPerimeter;whiteSpace=wrap;html=1;" vertex="1" parent="L5OPisyhlvLee5xW57fV-22">
          <mxGeometry x="20" y="200" width="120" height="60" as="geometry"/>
        </mxCell>
        <mxCell id="L5OPisyhlvLee5xW57fV-39" value="SAP" style="shape=parallelogram;perimeter=parallelogramPerimeter;whiteSpace=wrap;html=1;" vertex="1" parent="L5OPisyhlvLee5xW57fV-22">
          <mxGeometry x="20" y="357.5" width="120" height="60" as="geometry"/>
        </mxCell>
        <mxCell id="L5OPisyhlvLee5xW57fV-40" value="CAT" style="shape=parallelogram;perimeter=parallelogramPerimeter;whiteSpace=wrap;html=1;" vertex="1" parent="L5OPisyhlvLee5xW57fV-22">
          <mxGeometry x="15" y="515" width="120" height="60" as="geometry"/>
        </mxCell>
        <mxCell id="L5OPisyhlvLee5xW57fV-41" value="SAP" style="shape=parallelogram;perimeter=parallelogramPerimeter;whiteSpace=wrap;html=1;" vertex="1" parent="L5OPisyhlvLee5xW57fV-22">
          <mxGeometry x="15" y="650" width="120" height="60" as="geometry"/>
        </mxCell>
        <mxCell id="L5OPisyhlvLee5xW57fV-42" value="PIB and BPN" style="shape=document;whiteSpace=wrap;html=1;boundedLbl=1;" vertex="1" parent="L5OPisyhlvLee5xW57fV-22">
          <mxGeometry x="20" y="777" width="120" height="80" as="geometry"/>
        </mxCell>
        <mxCell id="L5OPisyhlvLee5xW57fV-43" value="Gap Report" style="shape=parallelogram;perimeter=parallelogramPerimeter;whiteSpace=wrap;html=1;" vertex="1" parent="L5OPisyhlvLee5xW57fV-22">
          <mxGeometry x="20" y="970" width="120" height="60" as="geometry"/>
        </mxCell>
        <mxCell id="L5OPisyhlvLee5xW57fV-23" value="Description" style="swimlane;html=1;startSize=20;" vertex="1" parent="L5OPisyhlvLee5xW57fV-12" treatAsSingle="0">
          <mxGeometry x="350" y="20" width="225" height="1160" as="geometry"/>
        </mxCell>
        <mxCell id="L5OPisyhlvLee5xW57fV-45" value="All models in CAT have to&#xa;be updated with correct&#xa;HS Code and correct&#xa;duty" style="text;html=1;align=center;" vertex="1" parent="L5OPisyhlvLee5xW57fV-23">
          <mxGeometry x="30" y="200" width="160" height="70" as="geometry"/>
        </mxCell>
        <mxCell id="L5OPisyhlvLee5xW57fV-46" value="Filter out the model&#xa;code with 0 duty" style="text;html=1;align=center;" vertex="1" parent="L5OPisyhlvLee5xW57fV-23">
          <mxGeometry x="47.5" y="364.5" width="130" height="40" as="geometry"/>
        </mxCell>
        <mxCell id="L5OPisyhlvLee5xW57fV-47" value="IF it&#39;s not updated in&#xa;CAT,&#xa;we have to update in&#xa;CAT, if it&#39;s updated&#xa;already in CAT, then raise&#xa;IT Ticket ro resend flow&#xa;from CAT to ECC.&#xa;Coninue the above steps&#xa;until all the model codes&amp;nbsp;&#xa;has the duty in ECC" style="text;html=1;align=center;" vertex="1" parent="L5OPisyhlvLee5xW57fV-23">
          <mxGeometry x="32.5" y="470" width="160" height="150" as="geometry"/>
        </mxCell>
        <mxCell id="L5OPisyhlvLee5xW57fV-48" value="Monthly activity, provide&#xa;reference customs value&#xa;amount on PNL (GAP&#xa;report)" style="text;html=1;align=center;" vertex="1" parent="L5OPisyhlvLee5xW57fV-23">
          <mxGeometry x="32.5" y="650" width="160" height="70" as="geometry"/>
        </mxCell>
        <mxCell id="L5OPisyhlvLee5xW57fV-49" value="Everytime payment duty and&#xa;taxes done, collecting all&#xa;document related togive to&#xa;finance" style="text;html=1;align=center;" vertex="1" parent="L5OPisyhlvLee5xW57fV-23">
          <mxGeometry x="22.5" y="780" width="180" height="70" as="geometry"/>
        </mxCell>
        <mxCell id="L5OPisyhlvLee5xW57fV-50" value="Total realized Customs duty, plus&#xa;accure Cusroms duty (18% from&#xa;shipment value) on Gap report.&#xa;Comparing the reference Customs&#xa;duty with total realized Customs&#xa;duty." style="text;html=1;align=center;" vertex="1" parent="L5OPisyhlvLee5xW57fV-23">
          <mxGeometry x="7.5" y="960" width="210" height="100" as="geometry"/>
        </mxCell>
      </root>
    </mxGraphModel>
  </diagram>
</mxfile>
